<?xml version="1.0" encoding="UTF-8"?>
<svg id="Camada_1" xmlns="http://www.w3.org/2000/svg" version="1.1" viewBox="0 0 400 400">
  <!-- Generator: Adobe Illustrator 29.8.1, SVG Export Plug-In . SVG Version: 2.1.1 Build 2)  -->
  <defs>
    <style>
      .st0 {
        fill: #38a7dd;
      }

      .st1 {
        fill: #1e447a;
      }

      .st2 {
        fill: #fff;
      }

      .st3 {
        fill: none;
      }

      .st4 {
        fill: #cf2528;
      }

      .st5 {
        fill: #ea8024;
      }

      .st6 {
        fill: #479ccd;
      }

      .st7 {
        fill: #236697;
      }

      .st8 {
        fill: #f0b721;
      }

      .st9 {
        fill: #1d1d1b;
      }

      .st10 {
        fill: #e85b2f;
      }

      .st11 {
        fill: #226999;
      }
    </style>
  </defs>
  <g>
    <g>
      <path class="st7" d="M130.38,272.29c-7.78-3.22-15.1-7.36-22.62-11.1-15.04-7.49-30.03-15.1-45.05-22.64-1.48-.74-2.76-1.3-2.75-3.47.11-34.8.11-69.6.14-104.4.22-.09.44-.18.66-.27,7.44,3.71,14.86,7.44,22.32,11.1,2.83,1.39,4.06,3.72,4.42,6.67.32,2.62-.28,5.06-1.27,7.51-3.67,9.14-.93,20.04,6.55,26.5,4.98,4.3,10.61,2.52,12.36-3.8,1.53-5.53-.33-10.62-1.77-15.77-.57-2.03-1.4-3.99-1.07-6.15.43-2.87,1.95-3.82,4.64-2.72,2.16.89,4.21,2.03,6.31,3.04,5.67,2.73,11,6.18,17.04,8.14.04.33.09.66.13.99,0,11.94-.04,23.88,0,35.82.02,5.91,2.5,7.99,8.07,7.16,3.26-.48,6.08.1,8.61,2.71,3.78,3.9,5.35,8.67,6.55,13.7,1.14,4.79,1.17,9.5-1.17,13.98-1.95,3.74-5.17,4.55-8.78,2.28-2.81-1.77-4.91-4.25-6.9-6.88-1.07-1.42-2.27-3.32-4.57-2.39-2.03.82-1.82,2.75-1.82,4.53,0,11.82-.02,23.65-.03,35.47Z"/>
      <path class="st4" d="M339.59,130.61c.07,1.05.2,2.1.2,3.14.01,33.42,0,66.83.04,100.25,0,2.02-.28,3.39-2.38,4.44-21.77,10.87-43.48,21.86-65.21,32.8-.31.15-.67.19-1.01.28-2.08-.51-1.35-2.22-1.36-3.47-.05-10.43-.02-20.87-.04-31.3,0-1.9-.1-3.94-2.32-4.62-2.19-.67-3.47.89-4.59,2.47-1.84,2.61-4.07,4.81-6.76,6.55-4.14,2.68-7.46,1.69-9-3.04-3.07-9.46-.71-17.93,5.22-25.6,2.79-3.61,6.31-4.73,10.55-2.84,1.56.7,2.6.27,3.75-.82,2.09-1.98,3.11-4.46,3.12-7.21.05-11.96-.03-23.91-.06-35.87.04-.18.08-.37.13-.55,7.38-3.02,14.15-7.25,21.33-10.68,4.83-2.31,6.41-1.32,6.08,4.08-.07,1.15-.32,2.33-.72,3.41-1.29,3.53-1.99,7.2-2.62,10.89-.71,4.15,1.77,9.76,4.9,11.3,2.86,1.42,6.82.21,10.15-3.68,6.32-7.38,8.32-17.12,4.04-26.81-1.9-4.31-.91-9.52,2.9-11.51,7.79-4.05,15.52-8.25,23.65-11.62Z"/>
      <path class="st1" d="M130.38,272.29c.01-11.82.03-23.65.03-35.47,0-1.78-.2-3.71,1.82-4.53,2.3-.93,3.5.97,4.57,2.39,1.99,2.64,4.09,5.11,6.9,6.88,3.61,2.28,6.83,1.46,8.78-2.28,2.34-4.47,2.31-9.19,1.17-13.98-1.2-5.03-2.77-9.8-6.55-13.7-2.52-2.6-5.35-3.19-8.61-2.71-5.56.82-8.04-1.26-8.07-7.16-.05-11.94,0-23.88,0-35.83,7.57,2.86,14.44,7.19,21.77,10.54,1.3.59,2.55,2.33,4.03.8,1.31-1.36,1.64-3.07,1.13-5.18-1.28-5.3-3.49-10.41-3.08-16.1.33-4.54,1.97-7.92,5.34-9.07,3.81-1.3,6.59.79,8.94,3.32,7.59,8.17,7.91,17.54,4.16,27.44-1.8,4.75-.22,9.22,4.28,11.48,6.29,3.16,12.59,6.29,18.88,9.45,1.16.58,2.3,1.18,3.64,1.18.21.24.43.47.64.71-.03,35.59-.06,71.17-.09,106.76-21.08-9.44-51.23-25.37-66.72-33.19-1.03-.52-1.98-1.18-2.97-1.78Z"/>
      <path class="st10" d="M200.07,307.25c.03-35.59.06-71.17.09-106.76,7.56-3.72,15.14-7.42,22.69-11.18,4.31-2.15,6.22-7.13,4.35-11.52-.88-2.06-1.69-4.12-2.05-6.32-1.41-8.71.91-16.3,7.48-22.23,5.39-4.86,11.32-2.56,12.65,4.51.83,4.41-.27,8.54-1.35,12.72-.61,2.37-1.58,4.65-1.54,7.17.07,4.03,1.35,4.87,4.96,3.11,7.47-3.65,14.92-7.32,22.39-10.98.03,11.96.11,23.91.06,35.87-.01,2.75-1.03,5.22-3.12,7.21-1.15,1.09-2.18,1.52-3.75.82-4.24-1.89-7.76-.77-10.55,2.84-5.93,7.68-8.29,16.14-5.22,25.6,1.54,4.73,4.86,5.73,9,3.04,2.69-1.74,4.92-3.94,6.76-6.55,1.11-1.58,2.39-3.14,4.59-2.47,2.22.67,2.32,2.72,2.32,4.62.02,10.43,0,20.87.04,31.3,0,1.26-.73,2.96,1.36,3.47-17.44,8.86-67.41,34.32-71.17,35.72Z"/>
      <path class="st8" d="M269.74,165.78c-7.46,3.66-14.92,7.33-22.39,10.98-3.61,1.76-4.9.93-4.96-3.11-.04-2.52.93-4.8,1.54-7.17,1.08-4.17,2.18-8.31,1.35-12.72-1.33-7.07-7.26-9.37-12.65-4.51-6.57,5.92-8.89,13.52-7.48,22.23.36,2.2,1.17,4.26,2.05,6.32,1.87,4.39-.04,9.37-4.35,11.52-7.54,3.76-15.12,7.45-22.69,11.18-.21-.24-.43-.47-.64-.71.07-1.4.2-2.8.2-4.19.03-33.13.05-66.27.07-99.4,17.53-8.92,35.04-17.86,52.6-26.73,5.4-2.73,10.64-5.8,16.32-7.97,1.62.89,1.1,2.46,1.1,3.78.04,9.96.02,19.92.02,29.88,0,2.01-.14,4.32,2.14,5.09,2.39.81,3.56-1.4,4.66-2.95,1.3-1.84,2.88-3.39,4.48-4.93,4.51-4.36,9.26-3.18,11.28,2.83,2.48,7.36.88,14.34-2.73,20.83-2.89,5.2-7.08,8.44-13.61,6.33-1.65-.53-2.97.24-3.98,1.56-1.47,1.92-2.23,4.11-2.23,6.51,0,11.6.03,23.2.05,34.8-.05.18-.1.36-.13.55Z"/>
      <path class="st5" d="M269.88,165.23c-.02-11.6-.05-23.2-.05-34.8,0-2.4.76-4.6,2.23-6.51,1.01-1.31,2.33-2.09,3.98-1.56,6.52,2.11,10.72-1.13,13.61-6.33,3.61-6.49,5.21-13.47,2.73-20.83-2.03-6.01-6.77-7.19-11.28-2.83-1.59,1.54-3.17,3.08-4.48,4.93-1.1,1.55-2.27,3.76-4.66,2.95-2.27-.77-2.14-3.09-2.14-5.09,0-9.96.01-19.92-.02-29.88,0-1.33.52-2.89-1.1-3.78,22.03-11.17,44.06-22.34,66.09-33.5,1.44-.73,2.9-1.42,4.81-2.35,0,35.28,0,70.13,0,104.98-8.13,3.36-15.86,7.57-23.65,11.62-3.81,1.98-4.81,7.2-2.9,11.51,4.28,9.69,2.28,19.43-4.04,26.81-3.33,3.89-7.29,5.1-10.15,3.68-3.13-1.55-5.6-7.16-4.9-11.3.63-3.68,1.32-7.35,2.62-10.89.39-1.08.65-2.26.72-3.41.32-5.4-1.25-6.39-6.08-4.08-7.17,3.43-13.95,7.67-21.33,10.68Z"/>
      <path class="st0" d="M130.29,164.93c-6.04-1.95-11.37-5.41-17.04-8.14-2.11-1.01-4.16-2.16-6.31-3.04-2.69-1.1-4.21-.15-4.64,2.72-.33,2.16.5,4.12,1.07,6.15,1.44,5.15,3.3,10.24,1.77,15.77-1.75,6.32-7.38,8.11-12.36,3.8-7.48-6.46-10.22-17.36-6.55-26.5.98-2.45,1.59-4.89,1.27-7.51-.36-2.95-1.6-5.29-4.42-6.67-7.46-3.66-14.88-7.4-22.32-11.1-.02-33.6-.04-67.2-.04-100.8,0-1.17-.57-2.73,1.39-3.07,9.43,4.06,18.35,9.13,27.54,13.67,12.13,5.99,24.19,12.13,36.26,18.23,1.54.78,2.99,1.74,4.48,2.62-.01,11.01-.02,22.03-.05,33.04,0,1.16-.03,2.36-.33,3.47-.33,1.21-.73,2.56-2.26,2.86-1.59.31-2.68-.57-3.61-1.71-1.4-1.72-2.81-3.44-4.19-5.18-1.8-2.27-3.95-4.36-6.97-3.93-3.2.46-4.88,3.09-5.73,6.05-2.05,7.17-.55,13.92,2.97,20.26,3.48,6.28,6.28,7.5,13.48,6.36,2.1-.33,3.63.34,4.67,2.25,1.26,2.31,1.96,4.76,1.96,7.38,0,11.01-.03,22.02-.05,33.04Z"/>
      <path class="st11" d="M130.29,164.93c.02-11.01.05-22.02.05-33.04,0-2.62-.7-5.06-1.96-7.38-1.04-1.91-2.57-2.59-4.67-2.25-7.19,1.14-9.99-.08-13.48-6.36-3.52-6.34-5.02-13.08-2.97-20.26.84-2.95,2.52-5.59,5.73-6.05,3.02-.43,5.17,1.66,6.97,3.93,1.38,1.74,2.79,3.46,4.19,5.18.93,1.14,2.01,2.02,3.61,1.71,1.53-.3,1.93-1.65,2.26-2.86.3-1.11.33-2.31.33-3.47.04-11.01.04-22.02.05-33.04,20.26,10.18,40.52,20.35,60.77,30.54,2.91,1.46,5.75,3.06,8.62,4.59-.02,33.13-.04,66.27-.07,99.4,0,1.4-.13,2.8-.2,4.19-1.34,0-2.48-.6-3.64-1.18-6.29-3.16-12.59-6.28-18.88-9.45-4.5-2.27-6.07-6.74-4.28-11.48,3.75-9.9,3.43-19.28-4.16-27.44-2.35-2.53-5.13-4.62-8.94-3.32-3.37,1.15-5,4.53-5.34,9.07-.42,5.69,1.8,10.8,3.08,16.1.51,2.11.18,3.81-1.13,5.18-1.47,1.53-2.73-.2-4.03-.8-7.34-3.35-14.2-7.68-21.77-10.54-.04-.33-.09-.66-.13-.98Z"/>
      <path class="st9" d="M208.72,306.17c2-.93,97.82-44.23,141.1-62.69,2.48-1.06,3.18-2.27,3.18-4.87-.08-61.68-.04-123.37-.13-185.05,0-2.93.79-4.31,3.64-5.2,5.45-1.69,10.76-3.82,16.26-5.81.79,1.24.47,2.42.47,3.51.02,66.49,0,132.99.07,199.48,0,2.45-.6,3.62-3.09,4.46-51.49,17.4-157.29,55.28-161.48,56.17Z"/>
      <path class="st9" d="M192.4,306.17c-25.39-8.56-60.03-21.51-85.41-30.08-25.43-8.58-50.83-17.24-76.29-25.7-3.07-1.02-3.99-2.39-3.99-5.64.11-66.02.09-132.04.09-198.06v-4.2c6.53,2.34,12.67,4.53,18.8,6.75,1.81.66,1.31,2.28,1.31,3.62.02,13.84.02,27.67.02,41.51,0,47.96.02,95.92-.08,143.88,0,2.91.89,4.23,3.56,5.36,42.95,18.29,132.37,56.39,142,62.55Z"/>
      <path class="st6" d="M62.11,26.54c-1.96.34-1.39,1.9-1.39,3.07,0,33.6.02,67.2.04,100.8-.22.09-.44.18-.66.27-.03-24.35-.07-48.7-.1-73.04-.01-9.95,0-19.9,0-29.85,0-1.71.05-3.14,2.12-1.24Z"/>
    </g>
    <g>
      <g>
        <path class="st9" d="M123.43,214.53c-.83,0-1.55-.56-1.76-1.37l-1.48-5.79h-12.61l-1.41,5.78c-.2.81-.93,1.38-1.76,1.38h-21.99c-.59,0-1.14-.29-1.48-.77s-.42-1.1-.23-1.66l20.31-56.97c.26-.72.94-1.21,1.71-1.21h22.8c.77,0,1.46.49,1.71,1.22l19.92,56.97c.19.56.11,1.17-.23,1.65-.34.48-.89.76-1.48.76h-22.03ZM115.73,190.2l-1.13-4.17c-.28-1.07-.53-2.04-.75-2.94-.23.93-.48,1.91-.76,2.94l-1.13,4.17h3.77Z"/>
        <path class="st2" d="M125.54,155.75l19.92,56.97h-22.03l-1.83-7.16h-15.45l-1.75,7.16h-21.99l20.31-56.97h22.8M109.58,192.01h8.52l-1.75-6.46c-.88-3.35-1.47-5.88-1.75-7.59-.29-1.53-.47-3.18-.54-4.94h-.43c-.08,1.76-.26,3.41-.54,4.94-.36,2.1-.95,4.63-1.75,7.59l-1.75,6.46M125.54,152.11h-22.8c-1.54,0-2.91.97-3.42,2.41l-20.31,56.97c-.4,1.11-.23,2.35.45,3.31.68.97,1.79,1.54,2.97,1.54h21.99c1.67,0,3.13-1.14,3.53-2.77l1.07-4.39h9.78l1.13,4.43c.41,1.61,1.86,2.73,3.52,2.73h22.03c1.18,0,2.28-.57,2.96-1.53.68-.96.86-2.19.47-3.3l-19.92-56.97c-.51-1.46-1.89-2.43-3.43-2.43h0Z"/>
      </g>
      <g>
        <path class="st9" d="M178.65,214.53c-.67,0-1.29-.37-1.61-.97l-6.54-12.34v11.49c0,1-.81,1.82-1.82,1.82h-20.08c-1,0-1.82-.81-1.82-1.82v-56.97c0-1,.81-1.82,1.82-1.82h25.76c7.9,0,14.06,1.81,18.29,5.37,4.35,3.67,6.56,8.93,6.56,15.63,0,4.43-1.12,8.16-3.33,11.06-1.74,2.31-3.93,3.9-6.53,4.75l13.77,20.98c.37.56.4,1.27.08,1.86-.32.59-.93.95-1.6.95h-22.96ZM171.88,179.73c1.52,0,2.63-.32,3.32-.96.64-.57.93-1.45.93-2.71,0-1.33-.32-2.29-.99-2.96-.62-.55-1.74-.87-3.27-.87h-1.37v7.5h1.37Z"/>
        <path class="st2" d="M174.37,155.75c7.5,0,13.2,1.65,17.12,4.94,3.94,3.32,5.92,8.07,5.92,14.24,0,4.05-.99,7.37-2.96,9.96-2.02,2.7-4.71,4.24-8.06,4.63l15.22,23.19h-22.96l-9.96-18.8v18.8h-20.08v-56.97h25.76M168.69,181.55h3.19c2,0,3.52-.48,4.55-1.44,1.01-.91,1.52-2.26,1.52-4.05s-.51-3.23-1.52-4.24c-1.04-.93-2.56-1.4-4.55-1.4h-3.19v11.13M174.37,152.11h-25.76c-2.01,0-3.63,1.63-3.63,3.63v56.97c0,2.01,1.63,3.63,3.63,3.63h20.08c2.01,0,3.63-1.63,3.63-3.63v-4.18l3.12,5.88c.63,1.19,1.87,1.93,3.21,1.93h22.96c1.34,0,2.56-.73,3.2-1.91.63-1.17.57-2.6-.16-3.72l-12.56-19.14c2.03-1.03,3.79-2.54,5.27-4.51,2.44-3.21,3.68-7.3,3.68-12.14,0-7.27-2.43-12.99-7.21-17.02-4.57-3.85-11.12-5.8-19.46-5.8h0ZM172.33,177.9v-3.84c.73.04,1.31.18,1.61.4.26.31.39.85.39,1.6,0,.67-.12,1.17-.31,1.34-.01.01-.03.02-.04.04-.28.25-.86.42-1.64.46h0Z"/>
      </g>
      <g>
        <path class="st9" d="M205.66,214.53c-1,0-1.82-.81-1.82-1.82v-56.97c0-1,.81-1.82,1.82-1.82h24.48c9.01,0,15.76,1.83,20.04,5.45,4.4,3.6,6.64,9.37,6.64,17.15,0,7.21-2,12.61-5.96,16.04-3.93,3.42-10.08,5.15-18.27,5.15h-4.6v14.99c0,1-.81,1.82-1.82,1.82h-20.51ZM229.44,179.26c1.51,0,2.62-.28,3.23-.82.04-.04.09-.08.14-.11.4-.29.85-.77.85-1.94,0-.89-.29-1.54-.96-2.1-.63-.56-1.75-.85-3.26-.85h-1.38v5.82h1.38Z"/>
        <path class="st2" d="M230.14,155.75c8.61,0,14.9,1.67,18.87,5.02,3.99,3.27,5.99,8.52,5.99,15.76,0,6.69-1.78,11.58-5.33,14.67-3.61,3.14-9.3,4.71-17.08,4.71h-6.42v16.81h-20.51v-56.97h24.48M226.25,181.08h3.19c2,0,3.48-.43,4.44-1.28,1.06-.77,1.6-1.91,1.6-3.41,0-1.42-.53-2.58-1.6-3.49-.96-.85-2.44-1.28-4.44-1.28h-3.19v9.46M230.14,152.11h-24.48c-2.01,0-3.63,1.63-3.63,3.63v56.97c0,2.01,1.63,3.63,3.63,3.63h20.51c2.01,0,3.63-1.63,3.63-3.63v-13.18h2.79c8.77,0,15.14-1.83,19.47-5.6,4.36-3.79,6.58-9.65,6.58-17.41,0-8.33-2.46-14.58-7.3-18.56-4.69-3.94-11.62-5.86-21.2-5.86h0ZM229.88,177.44v-2.17c1.24.06,1.58.35,1.58.35.02.02.04.03.06.05.23.2.32.34.32.72,0,.31-.05.43-.06.44,0,0-.01.01-.04.04-.09.07-.19.14-.27.22,0,0-.35.29-1.58.35h0Z"/>
      </g>
      <g>
        <path class="st9" d="M295.56,214.53c-.83,0-1.55-.56-1.76-1.37l-1.48-5.79h-12.61l-1.41,5.78c-.2.81-.93,1.38-1.76,1.38h-21.99c-.59,0-1.14-.29-1.48-.77-.34-.48-.42-1.1-.23-1.66l20.31-56.97c.26-.72.94-1.21,1.71-1.21h22.8c.77,0,1.46.49,1.71,1.22l19.92,56.97c.19.56.11,1.17-.23,1.65-.34.48-.89.76-1.48.76h-22.03ZM287.85,190.2l-1.13-4.17c-.28-1.07-.53-2.05-.75-2.94-.23.93-.48,1.91-.76,2.94l-1.13,4.17h3.77Z"/>
        <path class="st2" d="M297.66,155.75l19.92,56.97h-22.03l-1.83-7.16h-15.45l-1.75,7.16h-21.99l20.31-56.97h22.8M281.7,192.01h8.52l-1.75-6.46c-.88-3.35-1.47-5.88-1.75-7.59-.29-1.53-.47-3.18-.54-4.94h-.43c-.08,1.76-.26,3.41-.54,4.94-.36,2.1-.95,4.63-1.75,7.59l-1.75,6.46M297.66,152.11h-22.8c-1.54,0-2.91.97-3.42,2.41l-20.31,56.97c-.4,1.11-.23,2.35.45,3.31.68.97,1.79,1.54,2.97,1.54h21.99c1.67,0,3.13-1.14,3.53-2.77l1.07-4.39h9.77l1.13,4.43c.41,1.61,1.86,2.73,3.52,2.73h22.03c1.18,0,2.28-.57,2.96-1.53.68-.96.86-2.19.47-3.3l-19.92-56.97c-.51-1.46-1.89-2.43-3.43-2.43h0Z"/>
      </g>
    </g>
  </g>
  <g>
    <path class="st9" d="M25.74,338.08l-1.23-4.03h-6.17l-1.23,4.03h-3.87l5.98-17h4.39l6,17h-3.87ZM23.65,331.03l-1.23-3.94c-.08-.27-.18-.61-.31-1.02-.13-.41-.25-.83-.38-1.26-.13-.43-.23-.8-.31-1.11-.08.32-.19.71-.32,1.17-.13.47-.26.91-.38,1.33-.12.42-.21.72-.27.89l-1.21,3.94h4.41Z"/>
    <path class="st9" d="M41.72,333.38c0,1.5-.54,2.7-1.62,3.59-1.08.89-2.62,1.34-4.61,1.34-1.79,0-3.38-.34-4.79-1.02v-3.34c.81.35,1.64.67,2.5.96.86.29,1.72.44,2.57.44s1.51-.17,1.89-.51c.37-.34.56-.77.56-1.29,0-.43-.15-.79-.44-1.09-.29-.3-.68-.58-1.17-.84-.49-.26-1.05-.54-1.68-.84-.4-.19-.82-.41-1.28-.68-.46-.26-.9-.58-1.32-.97-.42-.39-.76-.86-1.03-1.41-.27-.55-.4-1.22-.4-1.99,0-1.52.51-2.7,1.54-3.55,1.03-.85,2.43-1.27,4.2-1.27.89,0,1.72.1,2.51.31.79.21,1.63.5,2.51.88l-1.16,2.8c-.77-.32-1.47-.56-2.09-.73-.62-.17-1.25-.26-1.9-.26-.68,0-1.2.16-1.57.47-.36.32-.55.73-.55,1.23,0,.6.27,1.08.81,1.42.54.35,1.34.77,2.4,1.28.87.41,1.61.84,2.22,1.28.61.44,1.08.96,1.41,1.57.33.6.5,1.34.5,2.23Z"/>
    <path class="st9" d="M54.79,333.38c0,1.5-.54,2.7-1.62,3.59-1.08.89-2.62,1.34-4.61,1.34-1.79,0-3.38-.34-4.79-1.02v-3.34c.81.35,1.64.67,2.5.96.86.29,1.72.44,2.57.44s1.51-.17,1.89-.51c.37-.34.56-.77.56-1.29,0-.43-.15-.79-.44-1.09-.29-.3-.68-.58-1.17-.84-.49-.26-1.05-.54-1.68-.84-.4-.19-.82-.41-1.28-.68-.46-.26-.9-.58-1.32-.97-.42-.39-.76-.86-1.03-1.41-.27-.55-.4-1.22-.4-1.99,0-1.52.51-2.7,1.54-3.55,1.03-.85,2.43-1.27,4.2-1.27.89,0,1.72.1,2.51.31.79.21,1.63.5,2.51.88l-1.16,2.8c-.77-.32-1.47-.56-2.09-.73-.62-.17-1.25-.26-1.9-.26-.68,0-1.2.16-1.57.47-.36.32-.55.73-.55,1.23,0,.6.27,1.08.81,1.42.54.35,1.34.77,2.4,1.28.87.41,1.61.84,2.22,1.28.61.44,1.08.96,1.41,1.57.33.6.5,1.34.5,2.23Z"/>
    <path class="st9" d="M73.24,329.59c0,1.75-.29,3.28-.87,4.59-.58,1.3-1.46,2.32-2.66,3.05-1.19.73-2.71,1.09-4.54,1.09s-3.35-.36-4.54-1.09c-1.19-.73-2.08-1.75-2.66-3.06-.58-1.31-.87-2.85-.87-4.6s.29-3.28.87-4.58c.58-1.3,1.46-2.3,2.66-3.02,1.19-.72,2.72-1.08,4.57-1.08s3.34.36,4.53,1.08c1.19.72,2.07,1.73,2.64,3.04.58,1.3.87,2.83.87,4.59ZM60.88,329.59c0,1.77.34,3.17,1.02,4.19.68,1.02,1.77,1.53,3.27,1.53s2.63-.51,3.3-1.53,1-2.41,1-4.19-.33-3.17-1-4.19c-.66-1.02-1.75-1.53-3.27-1.53s-2.62.51-3.3,1.53c-.68,1.02-1.02,2.42-1.02,4.19Z"/>
    <path class="st9" d="M83.94,323.89c-1.38,0-2.43.51-3.15,1.54-.73,1.03-1.09,2.44-1.09,4.22s.34,3.2,1.01,4.19c.67.99,1.75,1.48,3.24,1.48.68,0,1.37-.08,2.06-.24.7-.16,1.45-.38,2.25-.66v3.01c-.74.3-1.48.52-2.21.66-.73.14-1.54.21-2.44.21-1.75,0-3.19-.36-4.32-1.08-1.12-.72-1.95-1.73-2.49-3.04-.54-1.3-.81-2.83-.81-4.57s.31-3.22.92-4.53c.62-1.31,1.51-2.34,2.69-3.08,1.18-.74,2.62-1.11,4.33-1.11.84,0,1.68.11,2.53.32.85.21,1.66.5,2.43.87l-1.16,2.92c-.63-.3-1.27-.56-1.91-.78-.64-.22-1.27-.33-1.89-.33Z"/>
    <path class="st9" d="M98.19,338.08h-7.71v-2.04l2.06-.95v-10.96l-2.06-.95v-2.04h7.71v2.04l-2.06.95v10.96l2.06.95v2.04Z"/>
    <path class="st9" d="M111.45,338.08l-1.23-4.03h-6.17l-1.23,4.03h-3.87l5.98-17h4.39l6,17h-3.87ZM109.36,331.03l-1.23-3.94c-.08-.27-.18-.61-.31-1.02-.13-.41-.25-.83-.38-1.26-.13-.43-.23-.8-.31-1.11-.08.32-.19.71-.32,1.17-.13.47-.26.91-.38,1.33-.12.42-.21.72-.27.89l-1.21,3.94h4.41Z"/>
    <path class="st9" d="M124.16,323.89c-1.38,0-2.43.51-3.15,1.54-.73,1.03-1.09,2.44-1.09,4.22s.34,3.2,1.01,4.19c.67.99,1.75,1.48,3.24,1.48.68,0,1.37-.08,2.06-.24.7-.16,1.45-.38,2.25-.66v3.01c-.74.3-1.48.52-2.21.66-.73.14-1.54.21-2.44.21-1.75,0-3.19-.36-4.32-1.08-1.12-.72-1.95-1.73-2.49-3.04-.54-1.3-.81-2.83-.81-4.57s.31-3.22.92-4.53c.62-1.31,1.51-2.34,2.69-3.08,1.18-.74,2.62-1.11,4.33-1.11.84,0,1.68.11,2.53.32.85.21,1.66.5,2.43.87l-1.16,2.92c-.63-.3-1.27-.56-1.91-.78-.64-.22-1.27-.33-1.89-.33ZM126.36,340.97c0,.89-.26,1.57-.78,2.06-.52.49-1.45.73-2.8.73-.35,0-.66-.02-.94-.07-.28-.05-.53-.1-.75-.17v-1.94c.22.06.49.12.82.17.32.05.6.07.84.07.22,0,.41-.05.58-.15.17-.1.25-.29.25-.56,0-.29-.14-.54-.43-.76-.28-.22-.78-.39-1.49-.5l.9-1.78h2.23l-.31.71c.47.16.9.41,1.29.77.39.36.58.83.58,1.41Z"/>
    <path class="st9" d="M142.44,338.08l-1.23-4.03h-6.17l-1.23,4.03h-3.87l5.98-17h4.39l6,17h-3.87ZM133.31,319.74c.09-1.23.44-2.14,1.03-2.72s1.3-.87,2.12-.87c.43,0,.84.1,1.23.31.4.21.79.41,1.19.6.39.2.77.3,1.14.3.24,0,.47-.1.69-.31.22-.21.38-.51.47-.92h1.73c-.1,1.22-.44,2.12-1.04,2.7-.6.59-1.3.88-2.11.88-.41,0-.82-.1-1.23-.3-.41-.2-.81-.4-1.19-.6-.38-.21-.76-.31-1.14-.31-.24,0-.47.1-.69.31-.22.21-.38.51-.47.92h-1.73ZM140.36,331.03l-1.23-3.94c-.08-.27-.18-.61-.31-1.02-.13-.41-.25-.83-.38-1.26-.13-.43-.23-.8-.31-1.11-.08.32-.19.71-.32,1.17-.13.47-.26.91-.38,1.33-.12.42-.21.72-.27.89l-1.21,3.94h4.41Z"/>
    <path class="st9" d="M163.34,329.59c0,1.75-.29,3.28-.87,4.59-.58,1.3-1.46,2.32-2.66,3.05-1.19.73-2.71,1.09-4.54,1.09s-3.35-.36-4.54-1.09c-1.19-.73-2.08-1.75-2.66-3.06-.58-1.31-.87-2.85-.87-4.6s.29-3.28.87-4.58c.58-1.3,1.46-2.3,2.66-3.02,1.19-.72,2.72-1.08,4.57-1.08s3.34.36,4.53,1.08c1.19.72,2.07,1.73,2.64,3.04.58,1.3.87,2.83.87,4.59ZM150.98,329.59c0,1.77.34,3.17,1.02,4.19.68,1.02,1.77,1.53,3.27,1.53s2.63-.51,3.3-1.53c.66-1.02,1-2.41,1-4.19s-.33-3.17-1-4.19c-.66-1.02-1.75-1.53-3.27-1.53s-2.62.51-3.3,1.53c-.68,1.02-1.02,2.42-1.02,4.19Z"/>
    <path class="st9" d="M177.94,321.14c2.31,0,4.01.42,5.11,1.26,1.1.84,1.65,2.11,1.65,3.82,0,.77-.15,1.45-.44,2.03-.29.58-.68,1.07-1.16,1.47-.48.4-1,.73-1.55.98l4.98,7.38h-3.98l-4.03-6.5h-1.92v6.5h-3.58v-16.93h4.93ZM177.68,324.08h-1.09v4.58h1.16c1.19,0,2.04-.2,2.55-.59.51-.4.77-.98.77-1.75s-.28-1.38-.83-1.72c-.55-.34-1.41-.51-2.56-.51Z"/>
    <path class="st9" d="M195,338.08h-7.71v-2.04l2.06-.95v-10.96l-2.06-.95v-2.04h7.71v2.04l-2.06.95v10.96l2.06.95v2.04Z"/>
    <path class="st9" d="M213.26,329.59c0,1.75-.29,3.28-.87,4.59s-1.46,2.32-2.66,3.05c-1.19.73-2.71,1.09-4.54,1.09s-3.35-.36-4.54-1.09c-1.19-.73-2.08-1.75-2.66-3.06-.58-1.31-.87-2.85-.87-4.6s.29-3.28.87-4.58c.58-1.3,1.46-2.3,2.66-3.02,1.19-.72,2.72-1.08,4.57-1.08s3.34.36,4.53,1.08c1.19.72,2.07,1.73,2.64,3.04s.87,2.83.87,4.59ZM200.9,329.59c0,1.77.34,3.17,1.02,4.19.68,1.02,1.77,1.53,3.27,1.53s2.63-.51,3.3-1.53c.66-1.02,1-2.41,1-4.19s-.33-3.17-1-4.19c-.66-1.02-1.75-1.53-3.27-1.53s-2.62.51-3.3,1.53c-.68,1.02-1.02,2.42-1.02,4.19Z"/>
    <path class="st9" d="M222.17,321.14c2.18,0,3.77.47,4.78,1.41,1,.94,1.51,2.23,1.51,3.88,0,1-.21,1.92-.62,2.77-.41.85-1.09,1.54-2.05,2.06-.96.52-2.26.78-3.9.78h-1.54v6.02h-3.58v-16.93h5.41ZM221.98,324.08h-1.64v5.03h1.19c1.01,0,1.81-.2,2.41-.6.59-.4.89-1.06.89-1.96,0-1.64-.95-2.47-2.85-2.47Z"/>
    <path class="st9" d="M236.59,321.14c2.31,0,4.01.42,5.11,1.26,1.1.84,1.65,2.11,1.65,3.82,0,.77-.15,1.45-.44,2.03-.29.58-.68,1.07-1.16,1.47-.48.4-1,.73-1.55.98l4.98,7.38h-3.98l-4.03-6.5h-1.92v6.5h-3.58v-16.93h4.93ZM236.33,324.08h-1.09v4.58h1.16c1.19,0,2.04-.2,2.55-.59.51-.4.77-.98.77-1.75s-.28-1.38-.83-1.72c-.55-.34-1.41-.51-2.56-.51Z"/>
    <path class="st9" d="M257.06,338.08h-9.75v-16.93h9.75v2.94h-6.17v3.72h5.74v2.94h-5.74v4.36h6.17v2.96Z"/>
    <path class="st9" d="M267.12,338.08h-3.58v-13.94h-4.6v-2.99h12.78v2.99h-4.6v13.94Z"/>
    <path class="st9" d="M284.07,338.08h-9.75v-16.93h9.75v2.94h-6.17v3.72h5.74v2.94h-5.74v4.36h6.17v2.96Z"/>
    <path class="st9" d="M302.62,338.08h-4.55l-7.38-12.81h-.1c.03.81.07,1.61.11,2.42.04.81.07,1.61.11,2.42v7.97h-3.2v-16.93h4.53l7.35,12.69h.07c-.03-.77-.06-1.55-.1-2.32-.03-.77-.06-1.56-.07-2.35v-8.02h3.22v16.93Z"/>
    <path class="st9" d="M316.87,333.38c0,1.5-.54,2.7-1.62,3.59-1.08.89-2.62,1.34-4.61,1.34-1.79,0-3.38-.34-4.79-1.02v-3.34c.81.35,1.64.67,2.5.96.86.29,1.72.44,2.57.44s1.51-.17,1.89-.51c.37-.34.56-.77.56-1.29,0-.43-.15-.79-.44-1.09-.29-.3-.68-.58-1.17-.84-.49-.26-1.05-.54-1.68-.84-.4-.19-.82-.41-1.28-.68-.46-.26-.9-.58-1.32-.97-.42-.39-.76-.86-1.03-1.41-.27-.55-.4-1.22-.4-1.99,0-1.52.51-2.7,1.54-3.55,1.03-.85,2.43-1.27,4.2-1.27.89,0,1.72.1,2.51.31.79.21,1.63.5,2.51.88l-1.16,2.8c-.78-.32-1.47-.56-2.09-.73s-1.25-.26-1.9-.26c-.68,0-1.2.16-1.57.47-.36.32-.55.73-.55,1.23,0,.6.27,1.08.81,1.42.54.35,1.34.77,2.4,1.28.87.41,1.61.84,2.22,1.28.61.44,1.08.96,1.41,1.57s.5,1.34.5,2.23Z"/>
    <path class="st9" d="M329.7,338.08h-9.75v-16.93h9.75v2.94h-6.17v3.72h5.74v2.94h-5.74v4.36h6.17v2.96Z"/>
    <path class="st9" d="M353.44,329.44c0,2.86-.81,5.02-2.44,6.46-1.63,1.45-3.9,2.17-6.81,2.17h-4.79v-16.93h5.31c1.77,0,3.31.32,4.61.95,1.3.63,2.32,1.57,3.04,2.8.72,1.23,1.08,2.75,1.08,4.55ZM349.72,329.54c0-1.87-.41-3.24-1.23-4.13-.82-.89-2.02-1.33-3.58-1.33h-1.92v11.03h1.54c3.46,0,5.19-1.86,5.19-5.57Z"/>
    <path class="st9" d="M372.32,329.59c0,1.75-.29,3.28-.87,4.59-.58,1.3-1.46,2.32-2.66,3.05-1.19.73-2.71,1.09-4.54,1.09s-3.35-.36-4.54-1.09c-1.19-.73-2.08-1.75-2.66-3.06-.58-1.31-.87-2.85-.87-4.6s.29-3.28.87-4.58c.58-1.3,1.46-2.3,2.66-3.02,1.19-.72,2.72-1.08,4.56-1.08s3.34.36,4.53,1.08c1.19.72,2.07,1.73,2.64,3.04.58,1.3.87,2.83.87,4.59ZM359.96,329.59c0,1.77.34,3.17,1.02,4.19.68,1.02,1.77,1.53,3.27,1.53s2.63-.51,3.3-1.53c.66-1.02,1-2.41,1-4.19s-.33-3.17-1-4.19c-.66-1.02-1.76-1.53-3.27-1.53s-2.62.51-3.3,1.53c-.68,1.02-1.02,2.42-1.02,4.19Z"/>
    <path class="st9" d="M385.81,333.38c0,1.5-.54,2.7-1.62,3.59-1.08.89-2.62,1.34-4.61,1.34-1.79,0-3.38-.34-4.79-1.02v-3.34c.81.35,1.64.67,2.5.96.86.29,1.72.44,2.57.44s1.51-.17,1.89-.51c.37-.34.56-.77.56-1.29,0-.43-.15-.79-.44-1.09-.29-.3-.68-.58-1.17-.84-.49-.26-1.05-.54-1.68-.84-.4-.19-.82-.41-1.28-.68-.46-.26-.9-.58-1.32-.97-.42-.39-.76-.86-1.03-1.41-.27-.55-.4-1.22-.4-1.99,0-1.52.51-2.7,1.54-3.55,1.03-.85,2.43-1.27,4.2-1.27.89,0,1.72.1,2.51.31.79.21,1.63.5,2.51.88l-1.16,2.8c-.78-.32-1.47-.56-2.09-.73-.62-.17-1.25-.26-1.9-.26-.68,0-1.2.16-1.56.47-.36.32-.55.73-.55,1.23,0,.6.27,1.08.81,1.42.54.35,1.34.77,2.39,1.28.87.41,1.61.84,2.22,1.28.61.44,1.08.96,1.41,1.57.33.6.5,1.34.5,2.23Z"/>
    <path class="st9" d="M36.24,349.6c2.18,0,3.77.47,4.78,1.41,1,.94,1.51,2.23,1.51,3.88,0,1-.21,1.92-.62,2.77-.41.85-1.09,1.54-2.05,2.06-.96.52-2.26.78-3.9.78h-1.54v6.02h-3.58v-16.93h5.41ZM36.05,352.54h-1.64v5.03h1.19c1.01,0,1.81-.2,2.41-.6s.89-1.06.89-1.96c0-1.64-.95-2.47-2.85-2.47Z"/>
    <path class="st9" d="M50.66,349.6c2.31,0,4.01.42,5.11,1.26,1.1.84,1.65,2.11,1.65,3.82,0,.77-.15,1.45-.44,2.03-.29.58-.68,1.07-1.16,1.47-.48.4-1,.73-1.55.98l4.98,7.38h-3.98l-4.03-6.5h-1.92v6.5h-3.58v-16.93h4.93ZM50.4,352.54h-1.09v4.58h1.16c1.19,0,2.04-.2,2.55-.59.51-.4.77-.98.77-1.75s-.28-1.38-.83-1.72c-.55-.34-1.41-.51-2.56-.51Z"/>
    <path class="st9" d="M76.75,358.05c0,1.75-.29,3.28-.87,4.59-.58,1.3-1.46,2.32-2.66,3.05-1.19.73-2.71,1.09-4.54,1.09s-3.35-.36-4.54-1.09c-1.19-.73-2.08-1.75-2.66-3.06-.58-1.31-.87-2.85-.87-4.6s.29-3.28.87-4.58c.58-1.3,1.46-2.3,2.66-3.02,1.19-.72,2.72-1.08,4.57-1.08s3.34.36,4.53,1.08c1.19.72,2.07,1.73,2.64,3.04.58,1.3.87,2.83.87,4.59ZM64.39,358.05c0,1.77.34,3.17,1.02,4.19.68,1.02,1.77,1.53,3.27,1.53s2.63-.51,3.3-1.53c.66-1.02,1-2.41,1-4.19s-.33-3.17-1-4.19c-.66-1.02-1.75-1.53-3.27-1.53s-2.62.51-3.3,1.53c-.68,1.02-1.02,2.42-1.02,4.19Z"/>
    <path class="st9" d="M83.79,366.54h-3.53v-16.93h9.7v2.94h-6.17v4.36h5.74v2.94h-5.74v6.69Z"/>
    <path class="st9" d="M103.03,366.54h-9.75v-16.93h9.75v2.94h-6.17v3.72h5.74v2.94h-5.74v4.36h6.17v2.96Z"/>
    <path class="st9" d="M116.54,361.84c0,1.5-.54,2.7-1.62,3.59-1.08.89-2.62,1.34-4.61,1.34-1.79,0-3.38-.34-4.79-1.02v-3.34c.81.35,1.64.67,2.5.96.86.29,1.72.44,2.57.44s1.51-.17,1.89-.51c.37-.34.56-.77.56-1.29,0-.43-.15-.79-.44-1.09-.29-.3-.68-.58-1.17-.84-.49-.26-1.05-.54-1.68-.84-.4-.19-.82-.41-1.28-.68-.46-.26-.9-.58-1.32-.97-.42-.39-.76-.86-1.03-1.41-.27-.55-.4-1.22-.4-1.99,0-1.52.51-2.7,1.54-3.55,1.03-.85,2.43-1.27,4.2-1.27.89,0,1.72.1,2.51.31.79.21,1.63.5,2.51.88l-1.16,2.8c-.77-.32-1.47-.56-2.09-.73-.62-.17-1.25-.26-1.9-.26-.68,0-1.2.16-1.57.47-.36.32-.55.73-.55,1.23,0,.6.27,1.08.81,1.42.54.35,1.34.77,2.4,1.28.87.41,1.61.84,2.22,1.28.61.44,1.08.96,1.41,1.57.33.6.5,1.34.5,2.23Z"/>
    <path class="st9" d="M129.61,361.84c0,1.5-.54,2.7-1.62,3.59-1.08.89-2.62,1.34-4.61,1.34-1.79,0-3.38-.34-4.79-1.02v-3.34c.81.35,1.64.67,2.5.96.86.29,1.72.44,2.57.44s1.51-.17,1.89-.51c.37-.34.56-.77.56-1.29,0-.43-.15-.79-.44-1.09-.29-.3-.68-.58-1.17-.84-.49-.26-1.05-.54-1.68-.84-.4-.19-.82-.41-1.28-.68-.46-.26-.9-.58-1.32-.97-.42-.39-.76-.86-1.03-1.41-.27-.55-.4-1.22-.4-1.99,0-1.52.51-2.7,1.54-3.55,1.03-.85,2.43-1.27,4.2-1.27.89,0,1.72.1,2.51.31.79.21,1.63.5,2.51.88l-1.16,2.8c-.77-.32-1.47-.56-2.09-.73-.62-.17-1.25-.26-1.9-.26-.68,0-1.2.16-1.57.47-.36.32-.55.73-.55,1.23,0,.6.27,1.08.81,1.42.54.35,1.34.77,2.4,1.28.87.41,1.61.84,2.22,1.28.61.44,1.08.96,1.41,1.57.33.6.5,1.34.5,2.23Z"/>
    <path class="st9" d="M148.06,358.05c0,1.75-.29,3.28-.87,4.59-.58,1.3-1.46,2.32-2.66,3.05-1.19.73-2.71,1.09-4.54,1.09s-3.35-.36-4.54-1.09c-1.19-.73-2.08-1.75-2.66-3.06-.58-1.31-.87-2.85-.87-4.6s.29-3.28.87-4.58c.58-1.3,1.46-2.3,2.66-3.02,1.19-.72,2.72-1.08,4.57-1.08s3.34.36,4.53,1.08c1.19.72,2.07,1.73,2.64,3.04.58,1.3.87,2.83.87,4.59ZM135.71,358.05c0,1.77.34,3.17,1.02,4.19.68,1.02,1.77,1.53,3.27,1.53s2.63-.51,3.3-1.53c.66-1.02,1-2.41,1-4.19s-.33-3.17-1-4.19c-.66-1.02-1.75-1.53-3.27-1.53s-2.62.51-3.3,1.53c-.68,1.02-1.02,2.42-1.02,4.19Z"/>
    <path class="st9" d="M156.51,349.6c2.31,0,4.01.42,5.11,1.26,1.1.84,1.65,2.11,1.65,3.82,0,.77-.15,1.45-.44,2.03-.29.58-.68,1.07-1.16,1.47-.48.4-1,.73-1.55.98l4.98,7.38h-3.98l-4.03-6.5h-1.92v6.5h-3.58v-16.93h4.93ZM156.24,352.54h-1.09v4.58h1.16c1.19,0,2.04-.2,2.55-.59.51-.4.77-.98.77-1.75s-.28-1.38-.83-1.72c-.55-.34-1.41-.51-2.56-.51Z"/>
    <path class="st9" d="M176.97,366.54h-9.75v-16.93h9.75v2.94h-6.17v3.72h5.74v2.94h-5.74v4.36h6.17v2.96Z"/>
    <path class="st9" d="M190.49,361.84c0,1.5-.54,2.7-1.62,3.59-1.08.89-2.62,1.34-4.61,1.34-1.79,0-3.38-.34-4.79-1.02v-3.34c.81.35,1.64.67,2.5.96.86.29,1.72.44,2.57.44s1.51-.17,1.89-.51c.37-.34.56-.77.56-1.29,0-.43-.15-.79-.44-1.09-.29-.3-.68-.58-1.17-.84-.49-.26-1.05-.54-1.68-.84-.4-.19-.82-.41-1.28-.68-.46-.26-.9-.58-1.32-.97-.42-.39-.76-.86-1.03-1.41-.27-.55-.4-1.22-.4-1.99,0-1.52.51-2.7,1.54-3.55,1.03-.85,2.43-1.27,4.2-1.27.89,0,1.72.1,2.51.31.79.21,1.63.5,2.51.88l-1.16,2.8c-.77-.32-1.47-.56-2.09-.73-.62-.17-1.25-.26-1.9-.26-.68,0-1.2.16-1.57.47-.36.32-.55.73-.55,1.23,0,.6.27,1.08.81,1.42.54.35,1.34.77,2.4,1.28.87.41,1.61.84,2.22,1.28.61.44,1.08.96,1.41,1.57.33.6.5,1.34.5,2.23Z"/>
    <path class="st9" d="M210.1,366.54l-1.23-4.03h-6.17l-1.23,4.03h-3.87l5.98-17h4.39l6,17h-3.87ZM208.02,359.49l-1.23-3.94c-.08-.27-.18-.61-.31-1.02-.13-.41-.25-.83-.38-1.26-.13-.43-.23-.8-.31-1.11-.08.32-.19.71-.32,1.17-.13.47-.26.91-.38,1.33-.12.42-.21.72-.27.89l-1.21,3.94h4.41Z"/>
    <path class="st9" d="M221.51,349.6c2.18,0,3.77.47,4.78,1.41,1,.94,1.51,2.23,1.51,3.88,0,1-.21,1.92-.62,2.77-.41.85-1.09,1.54-2.05,2.06-.96.52-2.26.78-3.9.78h-1.54v6.02h-3.58v-16.93h5.41ZM221.32,352.54h-1.64v5.03h1.19c1.01,0,1.81-.2,2.41-.6.59-.4.89-1.06.89-1.96,0-1.64-.95-2.47-2.85-2.47Z"/>
    <path class="st9" d="M246.36,358.05c0,1.75-.29,3.28-.87,4.59-.58,1.3-1.46,2.32-2.66,3.05-1.19.73-2.71,1.09-4.54,1.09s-3.35-.36-4.54-1.09c-1.19-.73-2.08-1.75-2.66-3.06-.58-1.31-.87-2.85-.87-4.6s.29-3.28.87-4.58c.58-1.3,1.46-2.3,2.66-3.02,1.19-.72,2.72-1.08,4.56-1.08s3.34.36,4.53,1.08c1.19.72,2.07,1.73,2.64,3.04.58,1.3.87,2.83.87,4.59ZM234.01,358.05c0,1.77.34,3.17,1.02,4.19.68,1.02,1.77,1.53,3.27,1.53s2.63-.51,3.3-1.53c.66-1.02,1-2.41,1-4.19s-.33-3.17-1-4.19c-.66-1.02-1.75-1.53-3.27-1.53s-2.62.51-3.3,1.53c-.68,1.02-1.02,2.42-1.02,4.19Z"/>
    <path class="st9" d="M259.86,361.84c0,1.5-.54,2.7-1.62,3.59-1.08.89-2.62,1.34-4.61,1.34-1.79,0-3.38-.34-4.79-1.02v-3.34c.81.35,1.64.67,2.5.96.86.29,1.72.44,2.57.44s1.51-.17,1.89-.51c.37-.34.56-.77.56-1.29,0-.43-.15-.79-.44-1.09-.29-.3-.68-.58-1.17-.84s-1.05-.54-1.68-.84c-.4-.19-.82-.41-1.28-.68-.46-.26-.9-.58-1.32-.97-.42-.39-.76-.86-1.03-1.41-.27-.55-.4-1.22-.4-1.99,0-1.52.51-2.7,1.54-3.55,1.03-.85,2.43-1.27,4.2-1.27.89,0,1.72.1,2.51.31.79.21,1.63.5,2.51.88l-1.16,2.8c-.77-.32-1.47-.56-2.09-.73-.62-.17-1.25-.26-1.9-.26s-1.2.16-1.56.47c-.36.32-.55.73-.55,1.23,0,.6.27,1.08.81,1.42.54.35,1.34.77,2.4,1.28.87.41,1.61.84,2.22,1.28.61.44,1.08.96,1.41,1.57.33.6.5,1.34.5,2.23Z"/>
    <path class="st9" d="M272.69,366.54h-9.75v-16.93h9.75v2.94h-6.17v3.72h5.74v2.94h-5.74v4.36h6.17v2.96Z"/>
    <path class="st9" d="M291.23,366.54h-4.55l-7.38-12.81h-.1c.03.81.07,1.61.11,2.42.04.81.07,1.61.11,2.42v7.97h-3.2v-16.93h4.53l7.35,12.69h.07c-.03-.77-.06-1.55-.1-2.32-.03-.77-.06-1.56-.07-2.35v-8.02h3.22v16.93Z"/>
    <path class="st9" d="M302.03,366.54h-3.58v-13.94h-4.6v-2.99h12.78v2.99h-4.6v13.94Z"/>
    <path class="st9" d="M317.94,366.54l-1.23-4.03h-6.17l-1.23,4.03h-3.87l5.98-17h4.39l6,17h-3.87ZM315.85,359.49l-1.23-3.94c-.08-.27-.18-.61-.31-1.02-.13-.41-.25-.83-.38-1.26-.13-.43-.23-.8-.31-1.11-.08.32-.19.71-.32,1.17-.13.47-.26.91-.38,1.33-.12.42-.21.72-.27.89l-1.21,3.94h4.41Z"/>
    <path class="st9" d="M337.98,357.9c0,2.86-.81,5.02-2.44,6.46-1.63,1.45-3.9,2.17-6.81,2.17h-4.79v-16.93h5.31c1.77,0,3.31.32,4.61.95,1.3.63,2.32,1.57,3.04,2.8.72,1.23,1.08,2.75,1.08,4.55ZM334.26,358c0-1.87-.41-3.24-1.23-4.13-.82-.89-2.02-1.33-3.58-1.33h-1.92v11.03h1.54c3.46,0,5.19-1.86,5.19-5.57Z"/>
    <path class="st9" d="M356.86,358.05c0,1.75-.29,3.28-.87,4.59s-1.46,2.32-2.66,3.05c-1.19.73-2.71,1.09-4.54,1.09s-3.35-.36-4.54-1.09c-1.19-.73-2.08-1.75-2.66-3.06-.58-1.31-.87-2.85-.87-4.6s.29-3.28.87-4.58c.58-1.3,1.46-2.3,2.66-3.02,1.19-.72,2.72-1.08,4.57-1.08s3.34.36,4.53,1.08c1.19.72,2.07,1.73,2.64,3.04.58,1.3.87,2.83.87,4.59ZM344.5,358.05c0,1.77.34,3.17,1.02,4.19.68,1.02,1.77,1.53,3.27,1.53s2.63-.51,3.3-1.53c.66-1.02,1-2.41,1-4.19s-.33-3.17-1-4.19c-.66-1.02-1.75-1.53-3.27-1.53s-2.62.51-3.3,1.53c-.68,1.02-1.02,2.42-1.02,4.19Z"/>
    <path class="st9" d="M370.35,361.84c0,1.5-.54,2.7-1.62,3.59-1.08.89-2.62,1.34-4.61,1.34-1.79,0-3.38-.34-4.79-1.02v-3.34c.81.35,1.64.67,2.5.96.86.29,1.72.44,2.57.44s1.51-.17,1.89-.51c.37-.34.56-.77.56-1.29,0-.43-.15-.79-.44-1.09-.29-.3-.68-.58-1.17-.84-.49-.26-1.05-.54-1.68-.84-.4-.19-.82-.41-1.28-.68-.46-.26-.9-.58-1.32-.97-.42-.39-.76-.86-1.03-1.41-.27-.55-.4-1.22-.4-1.99,0-1.52.51-2.7,1.54-3.55,1.03-.85,2.43-1.27,4.2-1.27.89,0,1.72.1,2.51.31.79.21,1.63.5,2.51.88l-1.16,2.8c-.78-.32-1.47-.56-2.09-.73-.62-.17-1.25-.26-1.9-.26-.68,0-1.2.16-1.57.47-.36.32-.55.73-.55,1.23,0,.6.27,1.08.81,1.42.54.35,1.34.77,2.4,1.28.87.41,1.61.84,2.22,1.28.61.44,1.08.96,1.41,1.57.33.6.5,1.34.5,2.23Z"/>
  </g>
  <rect class="st3" x="-42" y="-32.72" width="484" height="484"/>
</svg>